<?xml version="1.0" encoding="UTF-8" standalone="no"?>
<!DOCTYPE svg PUBLIC "-//W3C//DTD SVG 1.1//EN" "http://www.w3.org/Graphics/SVG/1.1/DTD/svg11.dtd">
<svg version="1.1" xmlns="http://www.w3.org/2000/svg" xmlns:xlink="http://www.w3.org/1999/xlink" preserveAspectRatio="xMidYMid meet" viewBox="278.94764397905783 394.00528981416056 118.2316345269615 126.02644557614855" width="114.23" height="122.03"><defs><path d="M394.18 458.01C394.18 489.53 368.59 515.13 337.06 515.13C305.54 515.13 279.95 489.53 279.95 458.01C279.95 426.49 305.54 400.9 337.06 400.9C368.59 400.9 394.18 426.49 394.18 458.01Z" id="bMLMCjImw"></path><path d="M363.04 421.33C363.04 426.83 358.59 431.28 353.1 431.28C347.6 431.28 343.15 426.83 343.15 421.33C343.15 415.84 347.6 411.39 353.1 411.39C358.59 411.39 363.04 415.84 363.04 421.33Z" id="h3D4jPnghy"></path><path d="M359.24 417.51C359.24 420.89 356.87 423.63 353.96 423.63C351.05 423.63 348.69 420.89 348.69 417.51C348.69 414.13 351.05 411.39 353.96 411.39C356.87 411.39 359.24 414.13 359.24 417.51Z" id="bpvI3NbTI"></path><path d="M373.91 395.01C377.29 395.01 380.02 397.74 380.02 401.11C380.02 409.19 380.02 427.33 380.02 435.41C380.02 438.78 377.29 441.52 373.91 441.52C372.62 441.52 374.83 441.52 373.53 441.52C370.16 441.52 367.43 438.78 367.43 435.41C367.43 427.33 367.43 409.19 367.43 401.11C367.43 397.74 370.16 395.01 373.53 395.01C374.83 395.01 372.62 395.01 373.91 395.01Z" id="f5cogZrGYl"></path><path d="M394.18 459.92C394.18 491.44 368.59 517.03 337.06 517.03C305.54 517.03 279.95 491.44 279.95 459.92C279.95 428.39 394.18 428.39 394.18 459.92Z" id="bvcJE24Nd"></path><path d="M331.04 421.33C331.04 426.83 326.59 431.28 321.1 431.28C315.6 431.28 311.15 426.83 311.15 421.33C311.15 415.84 315.6 411.39 321.1 411.39C326.59 411.39 331.04 415.84 331.04 421.33Z" id="e66GFiEXAi"></path><path d="M326.37 417.51C326.37 420.89 324.01 423.63 321.1 423.63C318.18 423.63 315.82 420.89 315.82 417.51C315.82 414.13 318.18 411.39 321.1 411.39C324.01 411.39 326.37 414.13 326.37 417.51Z" id="a3QrfcxLC"></path></defs><g><g><use xlink:href="#bMLMCjImw" opacity="1" fill="#f5edb4" fill-opacity="1"></use></g><g><use xlink:href="#h3D4jPnghy" opacity="1" fill="#ffffff" fill-opacity="1"></use></g><g><use xlink:href="#bpvI3NbTI" opacity="1" fill="#353535" fill-opacity="1"></use></g><g><use xlink:href="#f5cogZrGYl" opacity="1" fill="#f5edb4" fill-opacity="1"></use></g><g><use xlink:href="#bvcJE24Nd" opacity="1" fill="#b03b3b" fill-opacity="1"></use></g><g><use xlink:href="#e66GFiEXAi" opacity="1" fill="#ffffff" fill-opacity="1"></use></g><g><use xlink:href="#a3QrfcxLC" opacity="1" fill="#353535" fill-opacity="1"></use></g></g></svg>