<?xml version="1.0" encoding="UTF-8" standalone="no"?>
<!DOCTYPE svg PUBLIC "-//W3C//DTD SVG 1.1//EN" "http://www.w3.org/Graphics/SVG/1.1/DTD/svg11.dtd">
<svg version="1.1" xmlns="http://www.w3.org/2000/svg" xmlns:xlink="http://www.w3.org/1999/xlink" preserveAspectRatio="xMidYMid meet" viewBox="151.18390804597703 166.1264367816092 237.33333333333343 139.63218390804604" width="256" height="148.81"><defs><path d="M365.52 167.13C376.56 167.13 385.52 176.08 385.52 187.13C385.52 210.25 385.52 259.63 385.52 282.76C385.52 293.8 376.56 302.76 365.52 302.76C322.85 302.76 214.85 302.76 172.18 302.76C161.14 302.76 152.18 293.8 152.18 282.76C152.18 259.63 152.18 210.25 152.18 187.13C152.18 176.08 161.14 167.13 172.18 167.13C214.85 167.13 322.85 167.13 365.52 167.13Z" id="a208GdnmqZ"></path><path d="M343.68 191.26C354.72 191.26 363.68 200.22 363.68 211.26C363.68 225.2 363.68 246.99 363.68 260.92C363.68 271.97 354.72 280.92 343.68 280.92C310.21 280.92 229.79 280.92 196.32 280.92C185.28 280.92 176.32 271.97 176.32 260.92C176.32 246.99 176.32 225.2 176.32 211.26C176.32 200.22 185.28 191.26 196.32 191.26C229.79 191.26 310.21 191.26 343.68 191.26Z" id="a5F6loksWT"></path><path d="M321.84 216.55C332.88 216.55 341.84 225.51 341.84 236.55C341.84 241.06 341.84 234.57 341.84 239.08C341.84 250.13 332.88 259.08 321.84 259.08C298.25 259.08 247.49 259.08 223.91 259.08C212.86 259.08 203.91 250.13 203.91 239.08C203.91 234.57 203.91 241.06 203.91 236.55C203.91 225.51 212.86 216.55 223.91 216.55C247.49 216.55 298.25 216.55 321.84 216.55Z" id="bAVutnNBp"></path><path d="M307.76 167.69L308.43 168.35L309.05 169.22L309.61 170.3L310.09 171.55L310.5 172.97L310.82 174.53L310.89 175L311.35 175.08L312.91 175.43L314.32 175.86L315.57 176.37L316.63 176.95L317.49 177.59L318.13 178.27L318.53 179L318.67 179.77L318.53 180.53L318.13 181.26L317.49 181.95L316.63 182.58L315.57 183.16L314.32 183.67L312.91 184.11L311.35 184.46L310.72 184.56L310.61 185.19L310.23 186.73L309.76 188.14L309.23 189.37L308.63 190.43L307.98 191.28L307.28 191.9L306.54 192.29L305.78 192.41L305.01 192.26L304.29 191.84L303.62 191.19L303 190.32L302.44 189.24L301.96 187.98L301.55 186.56L301.23 185L301.17 184.53L300.7 184.46L299.14 184.11L297.73 183.67L296.49 183.16L295.42 182.58L294.56 181.95L293.92 181.26L293.52 180.53L293.38 179.77L293.52 179L293.92 178.27L294.56 177.59L295.42 176.95L296.49 176.37L297.73 175.86L299.14 175.43L300.7 175.08L301.33 174.98L301.44 174.35L301.82 172.8L302.29 171.4L302.82 170.16L303.42 169.11L304.07 168.26L304.77 167.63L305.51 167.25L306.28 167.13L307.04 167.28L307.76 167.69Z" id="b1IVcbvCCB"></path><path d="M236.61 167.69L237.28 168.35L237.9 169.22L238.46 170.3L238.94 171.55L239.35 172.97L239.67 174.53L239.73 175L240.2 175.08L241.76 175.43L243.17 175.86L244.42 176.37L245.48 176.95L246.34 177.59L246.98 178.27L247.38 179L247.52 179.77L247.38 180.53L246.98 181.26L246.34 181.95L245.48 182.58L244.42 183.16L243.17 183.67L241.76 184.11L240.2 184.46L239.57 184.56L239.46 185.19L239.08 186.73L238.61 188.14L238.08 189.37L237.48 190.43L236.83 191.28L236.13 191.9L235.39 192.29L234.62 192.41L233.86 192.26L233.14 191.84L232.47 191.19L231.85 190.32L231.29 189.24L230.81 187.98L230.4 186.56L230.08 185L230.01 184.53L229.55 184.46L227.99 184.11L226.58 183.67L225.33 183.16L224.27 182.58L223.41 181.95L222.77 181.26L222.37 180.53L222.23 179.77L222.37 179L222.77 178.27L223.41 177.59L224.27 176.95L225.33 176.37L226.58 175.86L227.99 175.43L229.55 175.08L230.18 174.98L230.29 174.35L230.67 172.8L231.14 171.4L231.67 170.16L232.27 169.11L232.92 168.26L233.62 167.63L234.36 167.25L235.12 167.13L235.89 167.28L236.61 167.69Z" id="c3Fjf6wKX"></path><path d="M270 171.2C275.49 171.2 279.95 175.66 279.95 181.15C279.95 193.11 279.95 222.25 279.95 235.02C279.95 238.29 277.29 240.95 274.02 240.95C271.23 240.95 268.77 240.95 265.98 240.95C262.71 240.95 260.05 238.29 260.05 235.02C260.05 222.25 260.05 193.11 260.05 181.15C260.05 175.66 264.51 171.2 270 171.2C271.99 171.2 268.01 171.2 270 171.2Z" id="cGXT2gOp0"></path></defs><g><g><use xlink:href="#a208GdnmqZ" opacity="1" fill="#a7a7a7" fill-opacity="1"></use></g><g><use xlink:href="#a5F6loksWT" opacity="1" fill="#d1d1d1" fill-opacity="1"></use></g><g><use xlink:href="#bAVutnNBp" opacity="1" fill="#9996aa" fill-opacity="1"></use></g><g><use xlink:href="#b1IVcbvCCB" opacity="1" fill="#d4d4d4" fill-opacity="1"></use></g><g><use xlink:href="#c3Fjf6wKX" opacity="1" fill="#d4d4d4" fill-opacity="1"></use></g><g><use xlink:href="#cGXT2gOp0" opacity="1" fill="#8d8d8d" fill-opacity="1"></use></g></g></svg>